- 
http://www.Speed.Cd      fast  and The Hottest Private Tracker on the net

Please Seed back to make the speed Faster!!!

------------------nfo--------------------------
-[img]http://img7.imageshack.us/img7/7316/harrypotterdeathlyhalloo.jpg[/img]

Harry.Potter.and.the.Deathly.Hallows.Part.2.2011.DVDRip.XviD.AC3-EMBER 
http://www.imdb.com/title/tt1201607/ 

Plot:
The final chapter begins as Harry, Ron, and Hermione continue their quest of finding and destroying the 
Dark Lord's three remaining Horcruxes, the magical items responsible for his immortality

Source                           : Me Bro ;) cheers r kid

General
Format                           : AVI
Format/Info                      : Audio Video Interleave
File size                        : 1.56 GiB
Duration                         : 2h 5mn
Overall bit rate                 : 1 784 Kbps
Writing application              : VirtualDubMod 1.5.10.2 (build 2540/release)
Writing library                  : VirtualDubMod build 2540/release

Video
ID                               : 0
Format                           : MPEG-4 Visual
Format profile                   : Advanced Simple@L5
Format settings, BVOP            : 2
Format settings, QPel            : No
Format settings, GMC             : No warppoints
Format settings, Matrix          : Default (H.263)
Muxing mode                      : Packed bitstream
Codec ID                         : XVID
Codec ID/Hint                    : XviD
Duration                         : 2h 5mn
Bit rate                         : 1 548 Kbps
Width                            : 720 pixels
Height                           : 304 pixels
Display aspect ratio             : 2.35:1
Frame rate                       : 29.970 fps
Color space                      : YUV
Chroma subsampling               : 4:2:0
Bit depth                        : 8 bits
Scan type                        : Progressive
Compression mode                 : Lossy
Bits/(Pixel*Frame)               : 0.236
Stream size                      : 1.35 GiB (87%)
Writing library                  : XviD 64

Audio
ID                               : 1
Format                           : AC-3
Format/Info                      : Audio Coding 3
Mode extension                   : CM (complete main)
Codec ID                         : 2000
Duration                         : 2h 5mn
Bit rate mode                    : Constant
Bit rate                         : 224 Kbps
Channel(s)                       : 2 channels
Channel positions                : Front: L R
Sampling rate                    : 48.0 KHz
Bit depth                        : 16 bits
Compression mode                 : Lossy
Stream size                      : 200 MiB (13%)
Alignment                        : Split accross interleaves
Interleave, duration             : 33 ms (1.00 video frame)
Interleave, preload duration     : 500 ms

Notes
got passed this by me bro sometime ago but had too much on me plate to do it sooner.
Not Great source so dont expect miracles
Cropped, resized, degained,added couple very strong denoisers and a smoother scipt, added colour, contrast, brightness
changed RGB levels, added mpeg deblocker to help help get smooth video, and then added as much sharpness as possible 
without distorting the video, all in all used 14 filters, id say its as good as going to get before retail ;)

Screens
[img]http://img822.imageshack.us/img822/4972/89868452.png[/img]
[img]http://img834.imageshack.us/img834/92/83628290.png[/img]
[img]http://img200.imageshack.us/img200/2121/89792412.png[/img]
[img]http://img836.imageshack.us/img836/3295/13259924.png[/img]
[img]http://img412.imageshack.us/img412/9596/59223857.png[/img]
[img]http://img411.imageshack.us/img411/601/57347755.png[/img]


Greetz to 
SHiRK, SHK, LKRG, UnKnOwN, IMAGiNE, SiC, BHRG, TaRiQ786, FLAWL3SS, Rx, Hive-CM8

SAMURAi, ViSUALiSE, RemixHD, iNSANE, DTRG

And to all other groups past and present

Got something to offer?

then you should know where to find us